<mxfile host="app.diagrams.net" modified="2023-05-07T02:35:29.175Z" agent="Mozilla/5.0 (X11; Linux x86_64) AppleWebKit/537.36 (KHTML, like Gecko) Chrome/102.0.0.0 Safari/537.36" version="21.2.9" etag="W2T8crQtyr4IZ1AkEjJr" type="device" pages="4">
  <diagram id="ip-network" name="ip-network">
    <mxGraphModel dx="981" dy="580" grid="1" gridSize="10" guides="1" tooltips="1" connect="1" arrows="1" fold="1" page="1" pageScale="1" pageWidth="1654" pageHeight="1169" math="0" shadow="0">
      <root>
        <mxCell id="0" vertex_type="Vertex.ETC" />
        <mxCell id="1" parent="0" vertex_type="Vertex.ETC" />
        <mxCell id="ip-network-0" value="VRF&#xa;10" style="shape=ellipse;strokeWidth=3;whiteSpace=wrap;html=1;aspect=fixed;" parent="1" vertex="1" vertex_type="Vertex.ETC">
          <mxGeometry x="400" y="50" width="60" height="60" as="geometry" />
        </mxCell>
        <mxCell id="ip-network-1" value="VRF&#xa;20" style="shape=ellipse;strokeWidth=3;whiteSpace=wrap;html=1;aspect=fixed;" parent="1" vertex="1" vertex_type="Vertex.ETC">
          <mxGeometry x="500" y="400" width="60" height="60" as="geometry" />
        </mxCell>
        <mxCell id="ip-network-2" value="10.100.2.0 /24" style="shape=ellipse;whiteSpace=wrap;html=1;aspect=fixed;" parent="1" vertex="1" vertex_type="Vertex.ETC">
          <mxGeometry x="100" y="200" width="180" height="50" as="geometry" />
        </mxCell>
        <mxCell id="ip-network-3" value="10.100.3.0 /24" style="shape=ellipse;whiteSpace=wrap;html=1;aspect=fixed;" parent="1" vertex="1" vertex_type="Vertex.ETC">
          <mxGeometry x="600" y="200" width="180" height="50" as="geometry" />
        </mxCell>
        <mxCell id="ip-network-4" value="10.100.3.0 /24" style="shape=ellipse;whiteSpace=wrap;html=1;aspect=fixed;" parent="1" vertex="1" vertex_type="Vertex.ETC">
          <mxGeometry x="100" y="600" width="180" height="50" as="geometry" />
        </mxCell>
        <mxCell id="ip-network-5" value="10.100.3.0 /24" style="shape=ellipse;whiteSpace=wrap;html=1;aspect=fixed;" parent="1" vertex="1" vertex_type="Vertex.ETC">
          <mxGeometry x="400" y="600" width="180" height="50" as="geometry" />
        </mxCell>
        <mxCell id="ip-network-6" value="10.100.3.0 /24" style="shape=ellipse;whiteSpace=wrap;html=1;aspect=fixed;" parent="1" vertex="1" vertex_type="Vertex.ETC">
          <mxGeometry x="700" y="600" width="180" height="50" as="geometry" />
        </mxCell>
        <mxCell id="ip-network-7" style="edgeStyle=none;endArrow=none;curved=1;orthogonalLoop=1;jettySize=auto;html=1;" parent="1" source="ip-network-0" target="ip-network-2" vertex_type="Vertex.ETC" edge="1">
          <mxGeometry relative="1" as="geometry" />
        </mxCell>
        <mxCell id="ip-network-7-edge_src_label" value="100.1" style="labelBackgroundColor=#ffffff;" parent="ip-network-7" vertex="1" vertex_type="Vertex.ETC">
          <mxGeometry x="-0.8" relative="1" as="geometry" />
        </mxCell>
        <mxCell id="ip-network-8" style="edgeStyle=none;endArrow=none;curved=1;orthogonalLoop=1;jettySize=auto;html=1;" parent="1" source="ip-network-0" target="ip-network-3" vertex_type="Vertex.ETC" edge="1">
          <mxGeometry relative="1" as="geometry" />
        </mxCell>
        <mxCell id="ip-network-8-edge_src_label" value="200.1" style="labelBackgroundColor=#ffffff;" parent="ip-network-8" vertex="1" vertex_type="Vertex.ETC">
          <mxGeometry x="-0.8" relative="1" as="geometry" />
        </mxCell>
        <mxCell id="ip-network-9" style="edgeStyle=none;endArrow=none;curved=1;orthogonalLoop=1;jettySize=auto;html=1;" parent="1" source="ip-network-1" target="ip-network-3" vertex_type="Vertex.ETC" edge="1">
          <mxGeometry relative="1" as="geometry" />
        </mxCell>
        <mxCell id="ip-network-9-edge_src_label" value="200.254" style="labelBackgroundColor=#ffffff;" parent="ip-network-9" vertex="1" vertex_type="Vertex.ETC">
          <mxGeometry x="-0.8" relative="1" as="geometry" />
        </mxCell>
        <mxCell id="ip-network-10" style="edgeStyle=none;endArrow=none;curved=1;orthogonalLoop=1;jettySize=auto;html=1;" parent="1" source="ip-network-1" target="ip-network-4" vertex_type="Vertex.ETC" edge="1">
          <mxGeometry relative="1" as="geometry" />
        </mxCell>
        <mxCell id="ip-network-10-edge_src_label" value="300.1" style="labelBackgroundColor=#ffffff;" parent="ip-network-10" vertex="1" vertex_type="Vertex.ETC">
          <mxGeometry x="-0.8" relative="1" as="geometry" />
        </mxCell>
        <mxCell id="ip-network-11" style="edgeStyle=none;endArrow=none;curved=1;orthogonalLoop=1;jettySize=auto;html=1;" parent="1" source="ip-network-1" target="ip-network-5" vertex_type="Vertex.ETC" edge="1">
          <mxGeometry relative="1" as="geometry" />
        </mxCell>
        <mxCell id="ip-network-11-edge_src_label" value="400.1" style="labelBackgroundColor=#ffffff;" parent="ip-network-11" vertex="1" vertex_type="Vertex.ETC">
          <mxGeometry x="-0.8" relative="1" as="geometry" />
        </mxCell>
        <mxCell id="ip-network-12" style="edgeStyle=none;endArrow=none;curved=1;orthogonalLoop=1;jettySize=auto;html=1;" parent="1" source="ip-network-1" target="ip-network-6" vertex_type="Vertex.ETC" edge="1">
          <mxGeometry relative="1" as="geometry" />
        </mxCell>
        <mxCell id="ip-network-12-edge_src_label" value="500.1" style="labelBackgroundColor=#ffffff;" parent="ip-network-12" vertex="1" vertex_type="Vertex.ETC">
          <mxGeometry x="-0.8" relative="1" as="geometry" />
        </mxCell>
      </root>
    </mxGraphModel>
  </diagram>
  <diagram id="phy-network" name="phy-network">
    <mxGraphModel>
      <root>
        <mxCell id="0" vertex_type="Vertex.ETC" />
        <mxCell id="1" parent="0" vertex_type="Vertex.ETC" />
        <mxCell id="phy-network-0" parent="1" style="shape=rectangle;strokeWidth=3;whiteSpace=wrap;html=1;" value="hostname_A" vertex="1" vertex_type="Vertex.ETC">
          <mxGeometry x="200" y="50" width="160" height="60" as="geometry" />
        </mxCell>
        <mxCell id="phy-network-1" parent="1" style="shape=rectangle;strokeWidth=3;whiteSpace=wrap;html=1;" value="hostname_B" vertex="1" vertex_type="Vertex.ETC">
          <mxGeometry x="800" y="50" width="160" height="60" as="geometry" />
        </mxCell>
        <mxCell id="phy-network-2" parent="1" style="shape=rectangle;strokeWidth=3;whiteSpace=wrap;html=1;" value="hostname_A1" vertex="1" vertex_type="Vertex.ETC">
          <mxGeometry x="50" y="400" width="160" height="60" as="geometry" />
        </mxCell>
        <mxCell id="phy-network-3" parent="1" style="shape=rectangle;strokeWidth=3;whiteSpace=wrap;html=1;" value="hostname_A2" vertex="1" vertex_type="Vertex.ETC">
          <mxGeometry x="350" y="400" width="160" height="60" as="geometry" />
        </mxCell>
        <mxCell id="phy-network-4" parent="1" style="shape=rectangle;strokeWidth=3;whiteSpace=wrap;html=1;" value="hostname_B1" vertex="1" vertex_type="Vertex.ETC">
          <mxGeometry x="550" y="400" width="160" height="60" as="geometry" />
        </mxCell>
        <mxCell id="phy-network-5" parent="1" style="shape=rectangle;strokeWidth=3;whiteSpace=wrap;html=1;" value="hostname_B2" vertex="1" vertex_type="Vertex.ETC">
          <mxGeometry x="750" y="400" width="160" height="60" as="geometry" />
        </mxCell>
        <mxCell id="phy-network-6" parent="1" style="shape=rectangle;strokeWidth=3;whiteSpace=wrap;html=1;" value="hostname_B3" vertex="1" vertex_type="Vertex.ETC">
          <mxGeometry x="950" y="400" width="160" height="60" as="geometry" />
        </mxCell>
        <mxCell id="phy-network-7" parent="1" style="shape=rectangle;strokeWidth=3;whiteSpace=wrap;html=1;" value="hostname_B4" vertex="1" vertex_type="Vertex.ETC">
          <mxGeometry x="1150" y="400" width="160" height="60" as="geometry" />
        </mxCell>
        <mxCell id="phy-network-8" parent="1" style="shape=rectangle;strokeWidth=3;whiteSpace=wrap;html=1;" value="hostname_A21" vertex="1" vertex_type="Vertex.ETC">
          <mxGeometry x="350" y="600" width="160" height="60" as="geometry" />
        </mxCell>
        <mxCell id="phy-network-9" parent="1" style="shape=rectangle;strokeWidth=3;whiteSpace=wrap;html=1;" value="hostname_A22" vertex="1" vertex_type="Vertex.ETC">
          <mxGeometry x="50" y="600" width="160" height="60" as="geometry" />
        </mxCell>
        <mxCell id="phy-network-10" parent="1" style="shape=rectangle;strokeWidth=3;whiteSpace=wrap;html=1;" value="hostname_B31" vertex="1" vertex_type="Vertex.ETC">
          <mxGeometry x="950" y="600" width="160" height="60" as="geometry" />
        </mxCell>
        <mxCell id="phy-network-11" parent="1" style="edgeStyle=none;strokeWidth=3;startArrow=box;endArrow=box;curved=1;orthogonalLoop=1;jettySize=auto;html=1;" source="phy-network-0" target="phy-network-1" value="TEST" vertex_type="Vertex.ETC" edge="1">
          <mxGeometry relative="1" as="geometry" />
        </mxCell>
        <mxCell id="phy-network-11-edge_src_label" parent="phy-network-11" style="labelBackgroundColor=#ffffff;" value="G1/1/1" vertex="1" vertex_type="Vertex.ETC">
          <mxGeometry x="-0.8" relative="1" as="geometry" />
        </mxCell>
        <mxCell id="phy-network-11-edge_dst_label" parent="phy-network-11" style="labelBackgroundColor=#ffffff;" value="E1/1/1" vertex="1" vertex_type="Vertex.ETC">
          <mxGeometry x="0.8" relative="1" as="geometry" />
        </mxCell>
        <mxCell id="phy-network-12" parent="1" style="edgeStyle=none;endArrow=none;curved=1;orthogonalLoop=1;jettySize=auto;html=1;" source="phy-network-0" target="phy-network-2" value="TEST" vertex_type="Vertex.ETC" edge="1">
          <mxGeometry relative="1" as="geometry" />
        </mxCell>
        <mxCell id="phy-network-12-edge_src_label" parent="phy-network-12" style="labelBackgroundColor=#ffffff;" value="G1/1/1" vertex="1" vertex_type="Vertex.ETC">
          <mxGeometry x="-0.8" relative="1" as="geometry" />
        </mxCell>
        <mxCell id="phy-network-12-edge_dst_label" parent="phy-network-12" style="labelBackgroundColor=#ffffff;" value="E1/1/1" vertex="1" vertex_type="Vertex.ETC">
          <mxGeometry x="0.8" relative="1" as="geometry" />
        </mxCell>
        <mxCell id="phy-network-13" parent="1" style="edgeStyle=none;endArrow=none;curved=1;orthogonalLoop=1;jettySize=auto;html=1;" source="phy-network-0" target="phy-network-3" value="TEST" vertex_type="Vertex.ETC" edge="1">
          <mxGeometry relative="1" as="geometry" />
        </mxCell>
        <mxCell id="phy-network-13-edge_src_label" parent="phy-network-13" style="labelBackgroundColor=#ffffff;" value="G1/1/1" vertex="1" vertex_type="Vertex.ETC">
          <mxGeometry x="-0.8" relative="1" as="geometry" />
        </mxCell>
        <mxCell id="phy-network-13-edge_dst_label" parent="phy-network-13" style="labelBackgroundColor=#ffffff;" value="E1/1/1" vertex="1" vertex_type="Vertex.ETC">
          <mxGeometry x="0.8" relative="1" as="geometry" />
        </mxCell>
        <mxCell id="phy-network-14" parent="1" style="edgeStyle=none;endArrow=none;curved=1;orthogonalLoop=1;jettySize=auto;html=1;" source="phy-network-1" target="phy-network-4" value="TEST" vertex_type="Vertex.ETC" edge="1">
          <mxGeometry relative="1" as="geometry" />
        </mxCell>
        <mxCell id="phy-network-14-edge_src_label" parent="phy-network-14" style="labelBackgroundColor=#ffffff;" value="G1/1/1" vertex="1" vertex_type="Vertex.ETC">
          <mxGeometry x="-0.8" relative="1" as="geometry" />
        </mxCell>
        <mxCell id="phy-network-14-edge_dst_label" parent="phy-network-14" style="labelBackgroundColor=#ffffff;" value="E1/1/1" vertex="1" vertex_type="Vertex.ETC">
          <mxGeometry x="0.8" relative="1" as="geometry" />
        </mxCell>
        <mxCell id="phy-network-15" parent="1" style="edgeStyle=none;endArrow=none;curved=1;orthogonalLoop=1;jettySize=auto;html=1;" source="phy-network-1" target="phy-network-5" value="TEST" vertex_type="Vertex.ETC" edge="1">
          <mxGeometry relative="1" as="geometry" />
        </mxCell>
        <mxCell id="phy-network-15-edge_src_label" parent="phy-network-15" style="labelBackgroundColor=#ffffff;" value="G1/1/1" vertex="1" vertex_type="Vertex.ETC">
          <mxGeometry x="-0.8" relative="1" as="geometry" />
        </mxCell>
        <mxCell id="phy-network-15-edge_dst_label" parent="phy-network-15" style="labelBackgroundColor=#ffffff;" value="E1/1/1" vertex="1" vertex_type="Vertex.ETC">
          <mxGeometry x="0.8" relative="1" as="geometry" />
        </mxCell>
        <mxCell id="phy-network-16" parent="1" style="edgeStyle=none;endArrow=none;curved=1;orthogonalLoop=1;jettySize=auto;html=1;" source="phy-network-1" target="phy-network-6" value="TEST" vertex_type="Vertex.ETC" edge="1">
          <mxGeometry relative="1" as="geometry" />
        </mxCell>
        <mxCell id="phy-network-16-edge_src_label" parent="phy-network-16" style="labelBackgroundColor=#ffffff;" value="G1/1/1" vertex="1" vertex_type="Vertex.ETC">
          <mxGeometry x="-0.8" relative="1" as="geometry" />
        </mxCell>
        <mxCell id="phy-network-16-edge_dst_label" parent="phy-network-16" style="labelBackgroundColor=#ffffff;" value="E1/1/1" vertex="1" vertex_type="Vertex.ETC">
          <mxGeometry x="0.8" relative="1" as="geometry" />
        </mxCell>
        <mxCell id="phy-network-17" parent="1" style="edgeStyle=none;endArrow=none;curved=1;orthogonalLoop=1;jettySize=auto;html=1;" source="phy-network-1" target="phy-network-7" value="TEST" vertex_type="Vertex.ETC" edge="1">
          <mxGeometry relative="1" as="geometry" />
        </mxCell>
        <mxCell id="phy-network-17-edge_src_label" parent="phy-network-17" style="labelBackgroundColor=#ffffff;" value="G1/1/1" vertex="1" vertex_type="Vertex.ETC">
          <mxGeometry x="-0.8" relative="1" as="geometry" />
        </mxCell>
        <mxCell id="phy-network-17-edge_dst_label" parent="phy-network-17" style="labelBackgroundColor=#ffffff;" value="E1/1/1" vertex="1" vertex_type="Vertex.ETC">
          <mxGeometry x="0.8" relative="1" as="geometry" />
        </mxCell>
        <mxCell id="phy-network-18" parent="1" style="edgeStyle=none;endArrow=none;curved=1;orthogonalLoop=1;jettySize=auto;html=1;" source="phy-network-3" target="phy-network-8" value="TEST" vertex_type="Vertex.ETC" edge="1">
          <mxGeometry relative="1" as="geometry" />
        </mxCell>
        <mxCell id="phy-network-18-edge_src_label" parent="phy-network-18" style="labelBackgroundColor=#ffffff;" value="G1/1/1" vertex="1" vertex_type="Vertex.ETC">
          <mxGeometry x="-0.8" relative="1" as="geometry" />
        </mxCell>
        <mxCell id="phy-network-18-edge_dst_label" parent="phy-network-18" style="labelBackgroundColor=#ffffff;" value="E1/1/1" vertex="1" vertex_type="Vertex.ETC">
          <mxGeometry x="0.8" relative="1" as="geometry" />
        </mxCell>
        <mxCell id="phy-network-19" parent="1" style="edgeStyle=none;endArrow=none;curved=1;orthogonalLoop=1;jettySize=auto;html=1;" source="phy-network-6" target="phy-network-10" value="TEST" vertex_type="Vertex.ETC" edge="1">
          <mxGeometry relative="1" as="geometry" />
        </mxCell>
        <mxCell id="phy-network-19-edge_src_label" parent="phy-network-19" style="labelBackgroundColor=#ffffff;" value="G1/1/1" vertex="1" vertex_type="Vertex.ETC">
          <mxGeometry x="-0.8" relative="1" as="geometry" />
        </mxCell>
        <mxCell id="phy-network-19-edge_dst_label" parent="phy-network-19" style="labelBackgroundColor=#ffffff;" value="E1/1/1" vertex="1" vertex_type="Vertex.ETC">
          <mxGeometry x="0.8" relative="1" as="geometry" />
        </mxCell>
        <mxCell id="phy-network-20" parent="1" style="edgeStyle=orthogonalEdgeStyle;curved=0;orthogonalLoop=1;jettySize=auto;html=1;jumpStyle=arc;" source="phy-network-9" target="phy-network-7" value="TEST" vertex_type="Vertex.ETC" edge="1">
          <mxGeometry relative="1" as="geometry" />
        </mxCell>
        <mxCell id="phy-network-20-edge_src_label" parent="phy-network-20" style="labelBackgroundColor=#ffffff;" value="G1/1/1" vertex="1" vertex_type="Vertex.ETC">
          <mxGeometry x="-0.8" relative="1" as="geometry" />
        </mxCell>
        <mxCell id="phy-network-20-edge_dst_label" parent="phy-network-20" style="labelBackgroundColor=#ffffff;" value="E1/1/1" vertex="1" vertex_type="Vertex.ETC">
          <mxGeometry x="0.8" relative="1" as="geometry" />
        </mxCell>
      </root>
    </mxGraphModel>
  </diagram>
  <diagram id="phy-network-layout" name="phy-layout">
    <mxGraphModel dx="981" dy="580" grid="1" gridSize="10" guides="1" tooltips="1" connect="1" arrows="1" fold="1" page="1" pageScale="1" pageWidth="1654" pageHeight="1169" math="0" shadow="0">
      <root>
        <mxCell id="0" vertex_type="Vertex.ETC" />
        <mxCell id="1" parent="0" vertex_type="Vertex.ETC" />
        <mxCell id="phy-network-layout-0" value="hostname_A" style="shape=rectangle;strokeWidth=3;whiteSpace=wrap;html=1;" parent="1" vertex="1" vertex_type="Vertex.NODE">
          <mxGeometry x="260" y="100" width="160" height="60" as="geometry" />
        </mxCell>
        <mxCell id="phy-network-layout-1" value="hostname_B" style="shape=rectangle;strokeWidth=3;whiteSpace=wrap;html=1;" parent="1" vertex="1" vertex_type="Vertex.NODE">
          <mxGeometry x="600" y="100" width="160" height="60" as="geometry" />
        </mxCell>
        <mxCell id="phy-network-layout-2" value="hostname_A1" style="shape=rectangle;strokeWidth=3;whiteSpace=wrap;html=1;" parent="1" vertex="1" vertex_type="Vertex.NODE">
          <mxGeometry x="100" y="500" width="160" height="60" as="geometry" />
        </mxCell>
        <mxCell id="phy-network-layout-3" value="hostname_A2" style="shape=rectangle;strokeWidth=3;whiteSpace=wrap;html=1;" parent="1" vertex="1" vertex_type="Vertex.NODE">
          <mxGeometry x="300" y="500" width="160" height="60" as="geometry" />
        </mxCell>
        <mxCell id="phy-network-layout-4" value="hostname_B1" style="shape=rectangle;strokeWidth=3;whiteSpace=wrap;html=1;" parent="1" vertex="1" vertex_type="Vertex.NODE">
          <mxGeometry x="400" y="300" width="160" height="60" as="geometry" />
        </mxCell>
        <mxCell id="phy-network-layout-5" value="hostname_B2" style="shape=rectangle;strokeWidth=3;whiteSpace=wrap;html=1;" parent="1" vertex="1" vertex_type="Vertex.NODE">
          <mxGeometry x="600" y="300" width="160" height="60" as="geometry" />
        </mxCell>
        <mxCell id="phy-network-layout-6" value="hostname_B3" style="shape=rectangle;strokeWidth=3;whiteSpace=wrap;html=1;" parent="1" vertex="1" vertex_type="Vertex.NODE">
          <mxGeometry x="800" y="300" width="160" height="60" as="geometry" />
        </mxCell>
        <mxCell id="phy-network-layout-7" value="hostname_B4" style="shape=rectangle;strokeWidth=3;whiteSpace=wrap;html=1;" parent="1" vertex="1" vertex_type="Vertex.NODE">
          <mxGeometry x="1000" y="300" width="160" height="60" as="geometry" />
        </mxCell>
        <mxCell id="phy-network-layout-8" value="hostname_A21" style="shape=rectangle;strokeWidth=3;whiteSpace=wrap;html=1;" parent="1" vertex="1" vertex_type="Vertex.NODE">
          <mxGeometry x="300" y="700" width="160" height="60" as="geometry" />
        </mxCell>
        <mxCell id="phy-network-layout-9" value="hostname_A22" style="shape=rectangle;strokeWidth=3;whiteSpace=wrap;html=1;" parent="1" vertex="1" vertex_type="Vertex.NODE">
          <mxGeometry x="1000" y="500" width="160" height="60" as="geometry" />
        </mxCell>
        <mxCell id="phy-network-layout-10" value="hostname_B31" style="shape=rectangle;strokeWidth=3;whiteSpace=wrap;html=1;" parent="1" vertex="1" vertex_type="Vertex.NODE">
          <mxGeometry x="800" y="500" width="160" height="60" as="geometry" />
        </mxCell>
        <mxCell id="phy-network-layout-11" value="TEST" style="edgeStyle=none;strokeWidth=3;startArrow=box;endArrow=box;curved=1;orthogonalLoop=1;jettySize=auto;html=1;" parent="1" source="phy-network-layout-0" target="phy-network-layout-1" vertex_type="Vertex.ETC" edge="1">
          <mxGeometry relative="1" as="geometry" />
        </mxCell>
        <mxCell id="phy-network-layout-11-edge_src_label" value="Gi0/0/1" style="labelBackgroundColor=#ffffff;" parent="phy-network-layout-11" vertex="1" vertex_type="Vertex.ETC">
          <mxGeometry x="-0.8" relative="1" as="geometry" />
        </mxCell>
        <mxCell id="phy-network-layout-11-edge_dst_label" value="Gi0/0/1" style="labelBackgroundColor=#ffffff;" parent="phy-network-layout-11" vertex="1" vertex_type="Vertex.ETC">
          <mxGeometry x="0.8" relative="1" as="geometry" />
        </mxCell>
        <mxCell id="phy-network-layout-12" value="TEST" style="edgeStyle=none;endArrow=none;curved=1;orthogonalLoop=1;jettySize=auto;html=1;" parent="1" source="phy-network-layout-0" target="phy-network-layout-2" vertex_type="Vertex.ETC" edge="1">
          <mxGeometry relative="1" as="geometry" />
        </mxCell>
        <mxCell id="phy-network-layout-12-edge_src_label" value="Gi0/0/2" style="labelBackgroundColor=#ffffff;" parent="phy-network-layout-12" vertex="1" vertex_type="Vertex.ETC">
          <mxGeometry x="-0.8" relative="1" as="geometry" />
        </mxCell>
        <mxCell id="phy-network-layout-12-edge_dst_label" value="Gi0/0/1" style="labelBackgroundColor=#ffffff;" parent="phy-network-layout-12" vertex="1" vertex_type="Vertex.ETC">
          <mxGeometry x="0.8" relative="1" as="geometry" />
        </mxCell>
        <mxCell id="phy-network-layout-13" value="TEST" style="edgeStyle=none;endArrow=none;curved=1;orthogonalLoop=1;jettySize=auto;html=1;" parent="1" source="phy-network-layout-0" target="phy-network-layout-3" vertex_type="Vertex.ETC" edge="1">
          <mxGeometry relative="1" as="geometry" />
        </mxCell>
        <mxCell id="phy-network-layout-13-edge_src_label" value="Gi0/0/3" style="labelBackgroundColor=#ffffff;" parent="phy-network-layout-13" vertex="1" vertex_type="Vertex.ETC">
          <mxGeometry x="-0.8" relative="1" as="geometry" />
        </mxCell>
        <mxCell id="phy-network-layout-13-edge_dst_label" value="Gi0/0/1" style="labelBackgroundColor=#ffffff;" parent="phy-network-layout-13" vertex="1" vertex_type="Vertex.ETC">
          <mxGeometry x="0.8" relative="1" as="geometry" />
        </mxCell>
        <mxCell id="phy-network-layout-14" value="TEST" style="edgeStyle=none;endArrow=none;curved=1;orthogonalLoop=1;jettySize=auto;html=1;" parent="1" source="phy-network-layout-1" target="phy-network-layout-4" vertex_type="Vertex.ETC" edge="1">
          <mxGeometry relative="1" as="geometry" />
        </mxCell>
        <mxCell id="phy-network-layout-14-edge_src_label" value="Gi0/0/1" style="labelBackgroundColor=#ffffff;" parent="phy-network-layout-14" vertex="1" vertex_type="Vertex.ETC">
          <mxGeometry x="-0.8" relative="1" as="geometry" />
        </mxCell>
        <mxCell id="phy-network-layout-14-edge_dst_label" value="Gi0/0/1" style="labelBackgroundColor=#ffffff;" parent="phy-network-layout-14" vertex="1" vertex_type="Vertex.ETC">
          <mxGeometry x="0.8" relative="1" as="geometry" />
        </mxCell>
        <mxCell id="phy-network-layout-15" value="TEST" style="edgeStyle=none;endArrow=none;curved=1;orthogonalLoop=1;jettySize=auto;html=1;" parent="1" source="phy-network-layout-1" target="phy-network-layout-5" vertex_type="Vertex.ETC" edge="1">
          <mxGeometry relative="1" as="geometry" />
        </mxCell>
        <mxCell id="phy-network-layout-15-edge_src_label" value="Gi0/0/2" style="labelBackgroundColor=#ffffff;" parent="phy-network-layout-15" vertex="1" vertex_type="Vertex.ETC">
          <mxGeometry x="-0.8" relative="1" as="geometry" />
        </mxCell>
        <mxCell id="phy-network-layout-15-edge_dst_label" value="Gi0/0/1" style="labelBackgroundColor=#ffffff;" parent="phy-network-layout-15" vertex="1" vertex_type="Vertex.ETC">
          <mxGeometry x="0.8" relative="1" as="geometry" />
        </mxCell>
        <mxCell id="phy-network-layout-16" value="TEST" style="edgeStyle=none;endArrow=none;curved=1;orthogonalLoop=1;jettySize=auto;html=1;" parent="1" source="phy-network-layout-1" target="phy-network-layout-6" vertex_type="Vertex.ETC" edge="1">
          <mxGeometry relative="1" as="geometry" />
        </mxCell>
        <mxCell id="phy-network-layout-16-edge_src_label" value="Gi0/0/3" style="labelBackgroundColor=#ffffff;" parent="phy-network-layout-16" vertex="1" vertex_type="Vertex.ETC">
          <mxGeometry x="-0.8" relative="1" as="geometry" />
        </mxCell>
        <mxCell id="phy-network-layout-16-edge_dst_label" value="Gi0/0/1" style="labelBackgroundColor=#ffffff;" parent="phy-network-layout-16" vertex="1" vertex_type="Vertex.ETC">
          <mxGeometry x="0.8" relative="1" as="geometry" />
        </mxCell>
        <mxCell id="phy-network-layout-17" value="TEST" style="edgeStyle=none;endArrow=none;curved=1;orthogonalLoop=1;jettySize=auto;html=1;" parent="1" source="phy-network-layout-1" target="phy-network-layout-7" vertex_type="Vertex.ETC" edge="1">
          <mxGeometry relative="1" as="geometry" />
        </mxCell>
        <mxCell id="phy-network-layout-17-edge_src_label" value="Gi0/0/4" style="labelBackgroundColor=#ffffff;" parent="phy-network-layout-17" vertex="1" vertex_type="Vertex.ETC">
          <mxGeometry x="-0.8" relative="1" as="geometry" />
        </mxCell>
        <mxCell id="phy-network-layout-17-edge_dst_label" value="Gi0/0/1" style="labelBackgroundColor=#ffffff;" parent="phy-network-layout-17" vertex="1" vertex_type="Vertex.ETC">
          <mxGeometry x="0.8" relative="1" as="geometry" />
        </mxCell>
        <mxCell id="phy-network-layout-18" value="TEST" style="edgeStyle=none;endArrow=none;curved=1;orthogonalLoop=1;jettySize=auto;html=1;" parent="1" source="phy-network-layout-3" target="phy-network-layout-8" vertex_type="Vertex.ETC" edge="1">
          <mxGeometry relative="1" as="geometry" />
        </mxCell>
        <mxCell id="phy-network-layout-18-edge_src_label" value="Gi0/0/2" style="labelBackgroundColor=#ffffff;" parent="phy-network-layout-18" vertex="1" vertex_type="Vertex.ETC">
          <mxGeometry x="-0.8" relative="1" as="geometry" />
        </mxCell>
        <mxCell id="phy-network-layout-18-edge_dst_label" value="Gi0/0/1" style="labelBackgroundColor=#ffffff;" parent="phy-network-layout-18" vertex="1" vertex_type="Vertex.ETC">
          <mxGeometry x="0.8" relative="1" as="geometry" />
        </mxCell>
        <mxCell id="phy-network-layout-19" value="TEST" style="edgeStyle=none;endArrow=none;curved=1;orthogonalLoop=1;jettySize=auto;html=1;" parent="1" source="phy-network-layout-6" target="phy-network-layout-10" vertex_type="Vertex.ETC" edge="1">
          <mxGeometry relative="1" as="geometry" />
        </mxCell>
        <mxCell id="phy-network-layout-19-edge_src_label" value="Gi0/0/2" style="labelBackgroundColor=#ffffff;" parent="phy-network-layout-19" vertex="1" vertex_type="Vertex.ETC">
          <mxGeometry x="-0.8" relative="1" as="geometry" />
        </mxCell>
        <mxCell id="phy-network-layout-19-edge_dst_label" value="Gi0/0/1" style="labelBackgroundColor=#ffffff;" parent="phy-network-layout-19" vertex="1" vertex_type="Vertex.ETC">
          <mxGeometry x="0.8" relative="1" as="geometry" />
        </mxCell>
        <mxCell id="phy-network-layout-20" value="TEST" style="edgeStyle=none;endArrow=none;curved=1;orthogonalLoop=1;jettySize=auto;html=1;" parent="1" source="phy-network-layout-9" target="phy-network-layout-7" vertex_type="Vertex.ETC" edge="1">
          <mxGeometry relative="1" as="geometry" />
        </mxCell>
        <mxCell id="phy-network-layout-20-edge_src_label" value="Gi0/0/1" style="labelBackgroundColor=#ffffff;" parent="phy-network-layout-20" vertex="1" vertex_type="Vertex.ETC">
          <mxGeometry x="-0.8" relative="1" as="geometry" />
        </mxCell>
        <mxCell id="phy-network-layout-20-edge_dst_label" value="Gi0/0/2" style="labelBackgroundColor=#ffffff;" parent="phy-network-layout-20" vertex="1" vertex_type="Vertex.ETC">
          <mxGeometry x="0.8" relative="1" as="geometry" />
        </mxCell>
        <mxCell id="phy-network-layout-21" value="TEST" style="edgeStyle=none;strokeWidth=3;startArrow=box;endArrow=box;curved=1;orthogonalLoop=1;jettySize=auto;html=1;" parent="1" source="phy-network-layout-9" target="phy-network-layout-2" vertex_type="Vertex.ETC" edge="1">
          <mxGeometry relative="1" as="geometry" />
        </mxCell>
        <mxCell id="phy-network-layout-21-edge_src_label" value="Gi0/0/2" style="labelBackgroundColor=#ffffff;" parent="phy-network-layout-21" vertex="1" vertex_type="Vertex.ETC">
          <mxGeometry x="-0.8" relative="1" as="geometry" />
        </mxCell>
        <mxCell id="phy-network-layout-21-edge_dst_label" value="Gi0/0/2" style="labelBackgroundColor=#ffffff;" parent="phy-network-layout-21" vertex="1" vertex_type="Vertex.ETC">
          <mxGeometry x="0.8" relative="1" as="geometry" />
        </mxCell>
      </root>
    </mxGraphModel>
  </diagram>
  <diagram id="stp-network" name="stp-network">
    <mxGraphModel>
      <root>
        <mxCell id="0" vertex_type="Vertex.ETC" />
        <mxCell id="1" parent="0" vertex_type="Vertex.ETC" />
        <mxCell id="hostname_A" parent="1" style="swimlane;whiteSpace=wrap;html=1;" value="hostname_A" vertex="1" vertex_type="Vertex.ETC">
          <mxGeometry x="350" y="50" width="180" height="150" as="geometry" />
        </mxCell>
        <mxCell id="hostname_B" parent="1" style="swimlane;whiteSpace=wrap;html=1;" value="hostname_B" vertex="1" vertex_type="Vertex.ETC">
          <mxGeometry x="100" y="400" width="180" height="150" as="geometry" />
        </mxCell>
        <mxCell id="hostname_C" parent="1" style="swimlane;whiteSpace=wrap;html=1;" value="hostname_C" vertex="1" vertex_type="Vertex.ETC">
          <mxGeometry x="600" y="400" width="180" height="150" as="geometry" />
        </mxCell>
        <mxCell id="hostname_A-D1" parent="hostname_A" style="shape=rectangle;whiteSpace=wrap;html=1;" value="DP" vertex="1" vertex_type="Vertex.ETC">
          <mxGeometry y="1" width="20" height="20" relative="1" as="geometry">
            <mxPoint as="offset" x="10" y="None" />
          </mxGeometry>
        </mxCell>
        <mxCell id="hostname_A-D2" parent="hostname_A" style="shape=rectangle;whiteSpace=wrap;html=1;" value="DP" vertex="1" vertex_type="Vertex.ETC">
          <mxGeometry y="1" width="20" height="20" relative="1" as="geometry">
            <mxPoint as="offset" x="90" y="None" />
          </mxGeometry>
        </mxCell>
        <mxCell id="hostname_B-D1" parent="hostname_B" style="shape=rectangle;whiteSpace=wrap;html=1;" value="DP" vertex="1" vertex_type="Vertex.ETC">
          <mxGeometry width="20" height="20" relative="1" as="geometry">
            <mxPoint as="offset" x="10" y="-20" />
          </mxGeometry>
        </mxCell>
        <mxCell id="hostname_B-D2" parent="hostname_B" style="shape=rectangle;whiteSpace=wrap;html=1;" value="DP" vertex="1" vertex_type="Vertex.ETC">
          <mxGeometry width="20" height="20" relative="1" as="geometry">
            <mxPoint as="offset" x="90" y="-20" />
          </mxGeometry>
        </mxCell>
        <mxCell id="hostname_B-D3" parent="hostname_B" style="shape=rectangle;whiteSpace=wrap;html=1;" value="DP" vertex="1" vertex_type="Vertex.ETC">
          <mxGeometry x="1" width="20" height="20" relative="1" as="geometry">
            <mxPoint as="offset" x="None" y="10" />
          </mxGeometry>
        </mxCell>
        <mxCell id="hostname_B-D4" parent="hostname_B" style="shape=rectangle;whiteSpace=wrap;html=1;" value="DP" vertex="1" vertex_type="Vertex.ETC">
          <mxGeometry x="1" width="20" height="20" relative="1" as="geometry">
            <mxPoint as="offset" x="None" y="50" />
          </mxGeometry>
        </mxCell>
        <mxCell id="hostname_C-D1" parent="hostname_C" style="shape=rectangle;whiteSpace=wrap;html=1;" value="DP" vertex="1" vertex_type="Vertex.ETC">
          <mxGeometry width="20" height="20" relative="1" as="geometry">
            <mxPoint as="offset" x="10" y="-20" />
          </mxGeometry>
        </mxCell>
        <mxCell id="hostname_C-D2" parent="hostname_C" style="shape=rectangle;whiteSpace=wrap;html=1;" value="DP" vertex="1" vertex_type="Vertex.ETC">
          <mxGeometry width="20" height="20" relative="1" as="geometry">
            <mxPoint as="offset" x="90" y="-20" />
          </mxGeometry>
        </mxCell>
        <mxCell id="hostname_C-D3" parent="hostname_C" style="shape=rectangle;whiteSpace=wrap;html=1;" value="DP" vertex="1" vertex_type="Vertex.ETC">
          <mxGeometry width="20" height="20" relative="1" as="geometry">
            <mxPoint as="offset" x="-20" y="10" />
          </mxGeometry>
        </mxCell>
        <mxCell id="hostname_C-D4" parent="hostname_C" style="shape=rectangle;whiteSpace=wrap;html=1;" value="DP" vertex="1" vertex_type="Vertex.ETC">
          <mxGeometry width="20" height="20" relative="1" as="geometry">
            <mxPoint as="offset" x="-20" y="50" />
          </mxGeometry>
        </mxCell>
        <mxCell id="stp-network-0" parent="1" style="edgeStyle=none;curved=0;orthogonalLoop=1;endArrow=none;jettySize=auto;html=1;jumpStyle=arc;" source="hostname_A-D1" target="hostname_B-D1" value="TEST1" vertex_type="Vertex.ETC" edge="1">
          <mxGeometry relative="1" as="geometry" />
        </mxCell>
        <mxCell id="stp-network-0-edge_src_label" parent="stp-network-0" style="labelBackgroundColor=#ffffff;" value="G1/1/1" vertex="1" vertex_type="Vertex.ETC">
          <mxGeometry x="-0.8" relative="1" as="geometry" />
        </mxCell>
        <mxCell id="stp-network-0-edge_dst_label" parent="stp-network-0" style="labelBackgroundColor=#ffffff;" value="E1/1/1" vertex="1" vertex_type="Vertex.ETC">
          <mxGeometry x="0.8" relative="1" as="geometry" />
        </mxCell>
        <mxCell id="stp-network-1" parent="1" style="edgeStyle=none;curved=0;orthogonalLoop=1;endArrow=none;jettySize=auto;html=1;jumpStyle=arc;" source="hostname_A-D2" target="hostname_B-D2" value="TEST1" vertex_type="Vertex.ETC" edge="1">
          <mxGeometry relative="1" as="geometry" />
        </mxCell>
        <mxCell id="stp-network-1-edge_src_label" parent="stp-network-1" style="labelBackgroundColor=#ffffff;" value="G1/1/1" vertex="1" vertex_type="Vertex.ETC">
          <mxGeometry x="-0.8" relative="1" as="geometry" />
        </mxCell>
        <mxCell id="stp-network-1-edge_dst_label" parent="stp-network-1" style="labelBackgroundColor=#ffffff;" value="E1/1/1" vertex="1" vertex_type="Vertex.ETC">
          <mxGeometry x="0.8" relative="1" as="geometry" />
        </mxCell>
        <mxCell id="stp-network-2" parent="1" style="edgeStyle=none;curved=0;orthogonalLoop=1;endArrow=none;jettySize=auto;html=1;jumpStyle=arc;" source="hostname_B-D3" target="hostname_C-D3" value="TEST1" vertex_type="Vertex.ETC" edge="1">
          <mxGeometry relative="1" as="geometry" />
        </mxCell>
        <mxCell id="stp-network-2-edge_src_label" parent="stp-network-2" style="labelBackgroundColor=#ffffff;" value="G1/1/1" vertex="1" vertex_type="Vertex.ETC">
          <mxGeometry x="-0.8" relative="1" as="geometry" />
        </mxCell>
        <mxCell id="stp-network-2-edge_dst_label" parent="stp-network-2" style="labelBackgroundColor=#ffffff;" value="E1/1/1" vertex="1" vertex_type="Vertex.ETC">
          <mxGeometry x="0.8" relative="1" as="geometry" />
        </mxCell>
        <mxCell id="stp-network-3" parent="1" style="edgeStyle=none;curved=0;orthogonalLoop=1;endArrow=none;jettySize=auto;html=1;jumpStyle=arc;" source="hostname_B-D4" target="hostname_C-D4" value="TEST1" vertex_type="Vertex.ETC" edge="1">
          <mxGeometry relative="1" as="geometry" />
        </mxCell>
        <mxCell id="stp-network-3-edge_src_label" parent="stp-network-3" style="labelBackgroundColor=#ffffff;" value="G1/1/1" vertex="1" vertex_type="Vertex.ETC">
          <mxGeometry x="-0.8" relative="1" as="geometry" />
        </mxCell>
        <mxCell id="stp-network-3-edge_dst_label" parent="stp-network-3" style="labelBackgroundColor=#ffffff;" value="E1/1/1" vertex="1" vertex_type="Vertex.ETC">
          <mxGeometry x="0.8" relative="1" as="geometry" />
        </mxCell>
        <mxCell id="stp-network-4" parent="1" style="edgeStyle=none;curved=0;orthogonalLoop=1;endArrow=none;jettySize=auto;html=1;jumpStyle=arc;" source="hostname_A-D1" target="hostname_C-D1" value="TEST1" vertex_type="Vertex.ETC" edge="1">
          <mxGeometry relative="1" as="geometry" />
        </mxCell>
        <mxCell id="stp-network-4-edge_src_label" parent="stp-network-4" style="labelBackgroundColor=#ffffff;" value="G1/1/1" vertex="1" vertex_type="Vertex.ETC">
          <mxGeometry x="-0.8" relative="1" as="geometry" />
        </mxCell>
        <mxCell id="stp-network-4-edge_dst_label" parent="stp-network-4" style="labelBackgroundColor=#ffffff;" value="E1/1/1" vertex="1" vertex_type="Vertex.ETC">
          <mxGeometry x="0.8" relative="1" as="geometry" />
        </mxCell>
        <mxCell id="stp-network-5" parent="1" style="edgeStyle=none;curved=0;orthogonalLoop=1;endArrow=none;jettySize=auto;html=1;jumpStyle=arc;" source="hostname_A-D2" target="hostname_C-D2" value="TEST1" vertex_type="Vertex.ETC" edge="1">
          <mxGeometry relative="1" as="geometry" />
        </mxCell>
        <mxCell id="stp-network-5-edge_src_label" parent="stp-network-5" style="labelBackgroundColor=#ffffff;" value="G1/1/1" vertex="1" vertex_type="Vertex.ETC">
          <mxGeometry x="-0.8" relative="1" as="geometry" />
        </mxCell>
        <mxCell id="stp-network-5-edge_dst_label" parent="stp-network-5" style="labelBackgroundColor=#ffffff;" value="E1/1/1" vertex="1" vertex_type="Vertex.ETC">
          <mxGeometry x="0.8" relative="1" as="geometry" />
        </mxCell>
      </root>
    </mxGraphModel>
  </diagram>
</mxfile>
